<svg width="20" height="20" viewBox="0 0 20 20" fill="none" xmlns="http://www.w3.org/2000/svg">
<path d="M11.0114 16.3168C11.0114 16.8754 10.5586 17.3282 10 17.3282C9.44143 17.3282 8.98859 16.8754 8.98859 16.3168M11.0114 16.3168C11.0114 15.7582 10.5586 15.3054 10 15.3054M11.0114 16.3168H14.1911M8.98859 16.3168C8.98859 15.7582 9.44143 15.3054 10 15.3054M8.98859 16.3168H5.8089M10 15.3054V12.4855M8.55455 8.87413L6.66129 9.50528C6.20231 9.63518 5.82684 10.1317 5.82684 10.6087V12.4855H14.1732V10.6087C14.1732 10.1317 13.7977 9.63518 13.3388 9.50528L11.4454 8.87413M8.55455 8.87413L8.78021 7.52025M8.55455 8.87413C8.55455 9.67247 9.20167 10.3196 10 10.3196C10.7983 10.3196 11.4454 9.67247 11.4454 8.87413M11.4454 8.87413L11.2198 7.52025M12.1681 3.89804V1.87502H9.34904C8.51462 1.87502 7.83192 2.55772 7.83192 3.39214V3.89804M12.1681 3.89804L12.1681 5.72896C12.1681 6.92448 11.1955 7.89702 10 7.89702C8.80452 7.89702 7.83191 6.92448 7.83191 5.72896L7.83192 3.89804M12.1681 3.89804H7.83192M16.4952 15.1829L16.158 14.5086H14.1911V18.125H18.125V15.1829H16.4952ZM4.1791 15.1829L3.84193 14.5086H1.875V18.125H5.8089V15.1829H4.1791Z" stroke="#B3B3B3" stroke-width="1.25" stroke-miterlimit="10" stroke-linecap="round" stroke-linejoin="round"/>
</svg>
