<svg width="20" height="20" viewBox="0 0 20 20" fill="none" xmlns="http://www.w3.org/2000/svg">
<path d="M3.94465 3.96209L3.75461 3.36668L3.75426 3.3668L3.94465 3.96209ZM2.61382 4.51209L3.07728 4.93142L3.07827 4.93032L2.61382 4.51209ZM2.31715 5.45793L2.93222 5.56889L2.93224 5.56876L2.31715 5.45793ZM8.65882 18.0146L8.88259 17.431L8.88231 17.4309L8.65882 18.0146ZM11.3438 18.0138L11.1204 17.4301L11.1203 17.4301L11.3438 18.0138ZM17.6822 5.45793L17.0671 5.56876L17.0671 5.56889L17.6822 5.45793ZM16.0547 3.96209L15.8647 4.55753L15.8648 4.55757L16.0547 3.96209ZM10.6014 7.54492L11.1213 7.89188L11.1218 7.89108L10.6014 7.54492ZM10.6014 6.2832L11.1218 5.93704L11.1204 5.93492L10.6014 6.2832ZM9.39832 6.2832L8.87846 5.93625L8.87793 5.93704L9.39832 6.2832ZM9.39832 7.54492L8.87793 7.89108L8.87882 7.89241L9.39832 7.54492ZM9.99798 1.66626V1.04126C8.59683 1.04126 7.4578 1.51454 6.46442 2.02924C5.4297 2.56535 4.64847 3.08139 3.75461 3.36668L3.94465 3.96209L4.13469 4.5575C5.16249 4.22946 6.1546 3.59759 7.03947 3.13911C7.96566 2.65923 8.89247 2.29126 9.99798 2.29126V1.66626ZM3.94465 3.96209L3.75426 3.3668C3.37224 3.48898 3.05594 3.5896 2.8176 3.68293C2.59742 3.76915 2.33535 3.88732 2.14937 4.09387L2.61382 4.51209L3.07827 4.93032C3.05061 4.96103 3.06313 4.92921 3.27337 4.84688C3.46545 4.77167 3.7354 4.68521 4.13504 4.55739L3.94465 3.96209ZM2.61382 4.51209L2.15036 4.09277C1.98214 4.2787 1.89632 4.48803 1.83967 4.68704C1.78637 4.87431 1.74601 5.10316 1.70206 5.34709L2.31715 5.45793L2.93224 5.56876C2.98079 5.29936 3.0096 5.1428 3.04192 5.02923C3.0709 4.92741 3.08716 4.92049 3.07728 4.93141L2.61382 4.51209ZM2.31715 5.45793L1.70208 5.34696C0.669825 11.0686 2.92619 16.4888 8.43532 18.5983L8.65882 18.0146L8.88231 17.4309C4.05811 15.5837 1.98114 10.8406 2.93222 5.56889L2.31715 5.45793ZM8.65882 18.0146L8.43504 18.5982C8.9914 18.8115 9.3643 18.9579 10.0005 18.9579V18.3329V17.7079C9.61667 17.7079 9.43456 17.6427 8.88259 17.431L8.65882 18.0146ZM10.0005 18.3329V18.9579C10.637 18.9579 11.0111 18.8104 11.5673 18.5974L11.3438 18.0138L11.1203 17.4301C10.5665 17.6421 10.384 17.7079 10.0005 17.7079V18.3329ZM11.3438 18.0138L11.5673 18.5975C17.0759 16.4887 19.3294 11.0683 18.2972 5.34696L17.6822 5.45793L17.0671 5.56889C18.0182 10.8409 15.9434 15.5838 11.1204 17.4301L11.3438 18.0138ZM17.6822 5.45793L18.2972 5.34709C18.2532 5.10261 18.2126 4.87388 18.159 4.68627C18.1021 4.48698 18.0161 4.27855 17.8491 4.09304L17.3846 4.51126L16.9202 4.92948C16.9115 4.91981 16.9281 4.92804 16.9572 5.02979C16.9896 5.14322 17.0186 5.29991 17.0671 5.56876L17.6822 5.45793ZM17.3846 4.51126L17.8491 4.09304C17.6632 3.88662 17.4016 3.76846 17.1812 3.68218C16.9429 3.58886 16.6267 3.48846 16.2445 3.36661L16.0547 3.96209L15.8648 4.55757C16.2643 4.6849 16.5339 4.77116 16.7256 4.84617C16.9352 4.92822 16.9477 4.96006 16.9202 4.92948L17.3846 4.51126ZM16.0547 3.96209L16.2446 3.36666C15.3503 3.08134 14.5681 2.5652 13.5327 2.02915C12.5387 1.51451 11.3991 1.04126 9.99798 1.04126V1.66626V2.29126C11.1036 2.29126 12.031 2.65926 12.958 3.1392C13.8437 3.59774 14.8365 4.22952 15.8647 4.55753L16.0547 3.96209ZM9.99988 7.89062V8.51562C10.5553 8.51562 10.9312 8.1767 11.1213 7.89188L10.6014 7.54492L10.0816 7.19797C10.0625 7.22649 10.041 7.2467 10.0247 7.25712C10.0175 7.2617 10.0128 7.26353 10.0103 7.26429C10.0083 7.26492 10.0054 7.26562 9.99988 7.26562V7.89062ZM10.6014 7.54492L11.1218 7.89108C11.3177 7.59663 11.4061 7.24864 11.4061 6.91406H10.7811H10.1561C10.1561 7.03652 10.1227 7.13618 10.0811 7.19876L10.6014 7.54492ZM10.7811 6.91406H11.4061C11.4061 6.57999 11.3177 6.23158 11.1218 5.93704L10.6014 6.2832L10.0811 6.62937C10.1226 6.69186 10.1561 6.79188 10.1561 6.91406H10.7811ZM10.6014 6.2832L11.1204 5.93492C10.931 5.65277 10.5562 5.3125 9.99988 5.3125V5.9375V6.5625C10.0052 6.5625 10.008 6.56318 10.0099 6.56378C10.0123 6.56451 10.017 6.56633 10.0243 6.57096C10.0408 6.58151 10.0628 6.60209 10.0825 6.63149L10.6014 6.2832ZM9.99988 5.9375V5.3125C9.44443 5.3125 9.06855 5.65143 8.87846 5.93625L9.39832 6.2832L9.91817 6.63016C9.93721 6.60163 9.95873 6.58142 9.97504 6.57101C9.98221 6.56643 9.98697 6.56459 9.98944 6.56383C9.99146 6.56321 9.99437 6.5625 9.99988 6.5625V5.9375ZM9.39832 6.2832L8.87793 5.93704C8.68206 6.2315 8.59363 6.57949 8.59363 6.91406H9.21863H9.84363C9.84363 6.7916 9.87707 6.69194 9.9187 6.62937L9.39832 6.2832ZM9.21863 6.91406H8.59363C8.59363 7.24813 8.68201 7.59655 8.87793 7.89108L9.39832 7.54492L9.9187 7.19876C9.87712 7.13626 9.84363 7.03624 9.84363 6.91406H9.21863ZM9.39832 7.54492L8.87882 7.89241C9.06826 8.17562 9.44342 8.51562 9.99988 8.51562V7.89062V7.26562C9.99434 7.26562 9.99146 7.26491 9.9895 7.26431C9.98709 7.26356 9.98236 7.26175 9.97519 7.25716C9.95887 7.24673 9.93717 7.22638 9.91781 7.19744L9.39832 7.54492ZM9.99988 11.3281V11.9531C10.4454 11.9531 10.8185 12.0628 11.0594 12.2073C11.3127 12.3593 11.328 12.4822 11.328 12.5H11.953H12.578C12.578 11.8706 12.1561 11.4076 11.7025 11.1354C11.2365 10.8558 10.633 10.7031 9.99988 10.7031V11.3281ZM11.953 12.5H11.328C11.328 12.5178 11.3127 12.6407 11.0594 12.7927C10.8185 12.9372 10.4454 13.0469 9.99988 13.0469V13.6719V14.2969C10.633 14.2969 11.2365 14.1442 11.7025 13.8646C12.1561 13.5924 12.578 13.1294 12.578 12.5H11.953ZM9.99988 13.6719V13.0469C9.55434 13.0469 9.18124 12.9372 8.94037 12.7927C8.68706 12.6407 8.67175 12.5178 8.67175 12.5H8.04675H7.42175C7.42175 13.1294 7.84367 13.5924 8.29725 13.8646C8.76327 14.1442 9.36674 14.2969 9.99988 14.2969V13.6719ZM8.04675 12.5H8.67175C8.67175 12.4822 8.68706 12.3593 8.94037 12.2073C9.18124 12.0628 9.55434 11.9531 9.99988 11.9531V11.3281V10.7031C9.36674 10.7031 8.76327 10.8558 8.29725 11.1354C7.84367 11.4076 7.42175 11.8706 7.42175 12.5H8.04675Z" fill="#B3B3B3"/>
</svg>
