<svg width="20" height="20" viewBox="0 0 20 20" fill="none" xmlns="http://www.w3.org/2000/svg">
<path d="M14.1418 12.034C15.2834 12.2256 16.5418 12.0256 17.4251 11.434C18.6001 10.6506 18.6001 9.36731 17.4251 8.58398C16.5334 7.99231 15.2584 7.79231 14.1168 7.99231M5.83353 12.034C4.69186 12.2256 3.43353 12.0256 2.5502 11.434C1.3752 10.6506 1.3752 9.36731 2.5502 8.58398C3.44186 7.99231 4.71686 7.79231 5.85853 7.99231M15.0002 5.96718C14.9502 5.95885 14.8919 5.95885 14.8419 5.96718C13.6919 5.92551 12.7752 4.98384 12.7752 3.81718C12.7752 2.62551 13.7335 1.66718 14.9252 1.66718C16.1169 1.66718 17.0752 2.63384 17.0752 3.81718C17.0669 4.98384 16.1502 5.92551 15.0002 5.96718ZM4.97533 5.96718C5.02533 5.95885 5.08366 5.95885 5.13366 5.96718C6.28366 5.92551 7.20033 4.98384 7.20033 3.81718C7.20033 2.62551 6.242 1.66718 5.05033 1.66718C3.85866 1.66718 2.90033 2.63384 2.90033 3.81718C2.90866 4.98384 3.82533 5.92551 4.97533 5.96718ZM10.0005 12.1906C9.95051 12.1823 9.89218 12.1823 9.84218 12.1906C8.69218 12.149 7.77551 11.2073 7.77551 10.0406C7.77551 8.84896 8.73384 7.89062 9.92551 7.89062C11.1172 7.89062 12.0755 8.85729 12.0755 10.0406C12.0672 11.2073 11.1505 12.1573 10.0005 12.1906ZM7.57552 14.8162C6.40052 15.5996 6.40052 16.8829 7.57552 17.6662C8.90886 18.5579 11.0922 18.5579 12.4255 17.6662C13.6005 16.8829 13.6005 15.5996 12.4255 14.8162C11.1005 13.9329 8.90886 13.9329 7.57552 14.8162Z" stroke="#B3B3B3" stroke-width="1.25" stroke-linecap="round" stroke-linejoin="round"/>
</svg>
